# xmcd CD database file
#
# Track frame offsets:
#	150
#	13357
#	34287
#	45925
#	67247
#	76775
#	94737
#	110102
#	124535
#	140730
#	158025
#	171200
#	192690
#	204360
#	218412
#
# Disc length: 3217 seconds
#
# Revision: 1
# Processed by: cddbd v1.5.2PL0 Copyright (c) Steve Scherf et al.
# Submitted via: CDex 1.51
#
DISCID=d50c8f0f
DTITLE=Magic Slim - Alone and Unplugged
DYEAR=1995
DGENRE=Blues
TTITLE0=Mixed up about you
TTITLE1=Bring me my shotgun
TTITLE2=Boogie Chillun
TTITLE3=A thousand miles from nowhere
TTITLE4=Iky and Mikey
TTITLE5=Don't look now I've got the blues
TTITLE6=Tough Enough
TTITLE7=I'm a poor man but a good man
TTITLE8=Sadie
TTITLE9=Bring your fine self home
TTITLE10=Bye bye pretty baby
TTITLE11=You laugh and grin
TTITLE12=A little instrumental
TTITLE13=Nothin' for nothin'
TTITLE14=Interview with Slim
EXTD=YEAR: 1995
EXTT0=
EXTT1=
EXTT2=
EXTT3=
EXTT4=
EXTT5=
EXTT6=
EXTT7=
EXTT8=
EXTT9=
EXTT10=
EXTT11=
EXTT12=
EXTT13=
EXTT14=
PLAYORDER=
